<mxfile host="app.diagrams.net" modified="2022-06-20T07:34:37.811Z" agent="5.0 (Macintosh; Intel Mac OS X 10_15_7) AppleWebKit/537.36 (KHTML, like Gecko) Chrome/102.0.5005.124 Safari/537.36 Edg/102.0.1245.41" etag="2wy1HDdc47LRKdDcU-AN" version="20.0.1" type="github">
  <diagram id="C5RBs43oDa-KdzZeNtuy" name="Page-1">
    <mxGraphModel dx="1400" dy="838" grid="1" gridSize="10" guides="1" tooltips="1" connect="1" arrows="1" fold="1" page="1" pageScale="1" pageWidth="827" pageHeight="1169" math="0" shadow="0">
      <root>
        <mxCell id="WIyWlLk6GJQsqaUBKTNV-0" />
        <mxCell id="WIyWlLk6GJQsqaUBKTNV-1" parent="WIyWlLk6GJQsqaUBKTNV-0" />
        <mxCell id="B4zs4j52J3PY8R9Cxe29-0" value="wealth-sdk-app" style="rounded=1;whiteSpace=wrap;html=1;" vertex="1" parent="WIyWlLk6GJQsqaUBKTNV-1">
          <mxGeometry y="10" width="120" height="60" as="geometry" />
        </mxCell>
        <mxCell id="B4zs4j52J3PY8R9Cxe29-14" value="" style="group" vertex="1" connectable="0" parent="WIyWlLk6GJQsqaUBKTNV-1">
          <mxGeometry x="132.5" y="170" width="897.5" height="735" as="geometry" />
        </mxCell>
        <mxCell id="WIyWlLk6GJQsqaUBKTNV-3" value="&lt;div style=&quot;background-color: rgb(255, 255, 255); font-family: Menlo, Monaco, &amp;quot;Courier New&amp;quot;, monospace; line-height: 18px;&quot;&gt;&lt;span style=&quot;color: #267f99;&quot;&gt;index.js&lt;br&gt;AppRegistry&lt;/span&gt;.&lt;span style=&quot;color: #795e26;&quot;&gt;registerComponent&lt;/span&gt;(&lt;span style=&quot;color: #001080;&quot;&gt;appName&lt;/span&gt;, () &lt;span style=&quot;color: #0000ff;&quot;&gt;=&amp;gt;&lt;/span&gt; &lt;span style=&quot;color: #795e26;&quot;&gt;App&lt;/span&gt;);&lt;/div&gt;" style="rounded=1;whiteSpace=wrap;html=1;fontSize=12;glass=0;strokeWidth=1;shadow=0;align=center;" parent="B4zs4j52J3PY8R9Cxe29-14" vertex="1">
          <mxGeometry x="187.5" y="77" width="230" height="40" as="geometry" />
        </mxCell>
        <mxCell id="B4zs4j52J3PY8R9Cxe29-1" value="" style="edgeStyle=orthogonalEdgeStyle;rounded=0;orthogonalLoop=1;jettySize=auto;html=1;" edge="1" parent="B4zs4j52J3PY8R9Cxe29-14" source="Vocsn4lWY6FITpce8jwi-0" target="WIyWlLk6GJQsqaUBKTNV-3">
          <mxGeometry relative="1" as="geometry" />
        </mxCell>
        <mxCell id="Vocsn4lWY6FITpce8jwi-0" value="Start" style="ellipse;whiteSpace=wrap;html=1;" parent="B4zs4j52J3PY8R9Cxe29-14" vertex="1">
          <mxGeometry x="242.5" width="120" height="35" as="geometry" />
        </mxCell>
        <mxCell id="B4zs4j52J3PY8R9Cxe29-2" value="app/RootNavigator.js&lt;br&gt;&lt;div style=&quot;background-color: rgb(255, 255, 255); font-family: Menlo, Monaco, &amp;quot;Courier New&amp;quot;, monospace; line-height: 18px;&quot;&gt;&lt;font color=&quot;#ff0000&quot;&gt;createAppContainer&lt;/font&gt;(&lt;span style=&quot;color: #267f99;&quot;&gt;RootNavigator&lt;/span&gt;)&lt;/div&gt;" style="whiteSpace=wrap;html=1;rounded=1;glass=0;strokeWidth=1;shadow=0;" vertex="1" parent="B4zs4j52J3PY8R9Cxe29-14">
          <mxGeometry x="242.5" y="188" width="120" height="60" as="geometry" />
        </mxCell>
        <mxCell id="B4zs4j52J3PY8R9Cxe29-3" value="" style="edgeStyle=orthogonalEdgeStyle;rounded=0;orthogonalLoop=1;jettySize=auto;html=1;" edge="1" parent="B4zs4j52J3PY8R9Cxe29-14" source="WIyWlLk6GJQsqaUBKTNV-3" target="B4zs4j52J3PY8R9Cxe29-2">
          <mxGeometry relative="1" as="geometry" />
        </mxCell>
        <mxCell id="B4zs4j52J3PY8R9Cxe29-4" value="&lt;div style=&quot;background-color: rgb(255, 255, 255); font-family: Menlo, Monaco, &amp;quot;Courier New&amp;quot;, monospace; line-height: 18px;&quot;&gt;&lt;div&gt;&lt;span style=&quot;color: #0000ff;&quot;&gt;const&lt;/span&gt; &lt;span style=&quot;color: #267f99;&quot;&gt;RootNavigator&lt;/span&gt; = &lt;font color=&quot;#ff0000&quot;&gt;createStackNavigator&lt;/font&gt;(&lt;/div&gt;&lt;div&gt;  {&lt;/div&gt;&lt;div&gt;    &lt;span style=&quot;color: #001080;&quot;&gt;WealthSDKLandingScreen&lt;/span&gt;&lt;span style=&quot;color: #001080;&quot;&gt;:&lt;/span&gt; {&lt;/div&gt;&lt;div&gt;      &lt;span style=&quot;color: #795e26;&quot;&gt;screen&lt;/span&gt;&lt;span style=&quot;color: #001080;&quot;&gt;:&lt;/span&gt; &lt;span style=&quot;color: #795e26;&quot;&gt;HomeScreen&lt;/span&gt;,&lt;/div&gt;&lt;div&gt;    },&lt;/div&gt;&lt;div&gt;    &lt;span style=&quot;color: #001080;&quot;&gt;Login&lt;/span&gt;&lt;span style=&quot;color: #001080;&quot;&gt;:&lt;/span&gt; {&lt;/div&gt;&lt;div&gt;      &lt;span style=&quot;color: #795e26;&quot;&gt;screen&lt;/span&gt;&lt;span style=&quot;color: #001080;&quot;&gt;:&lt;/span&gt; &lt;span style=&quot;color: #795e26;&quot;&gt;LoginScreen&lt;/span&gt;,&lt;/div&gt;&lt;div&gt;    },&lt;/div&gt;&lt;div&gt;    &lt;span style=&quot;color: #001080;&quot;&gt;Test&lt;/span&gt;&lt;span style=&quot;color: #001080;&quot;&gt;:&lt;/span&gt; {&lt;/div&gt;&lt;div&gt;      &lt;span style=&quot;color: #267f99;&quot;&gt;screen&lt;/span&gt;&lt;span style=&quot;color: #001080;&quot;&gt;:&lt;/span&gt; &lt;span style=&quot;color: #267f99;&quot;&gt;TestScreen&lt;/span&gt;,&lt;/div&gt;&lt;div&gt;    },&lt;/div&gt;&lt;div&gt;    &lt;span style=&quot;color: #001080;&quot;&gt;Web&lt;/span&gt;&lt;span style=&quot;color: #001080;&quot;&gt;:&lt;/span&gt; {&lt;/div&gt;&lt;div&gt;      &lt;span style=&quot;color: #795e26;&quot;&gt;screen&lt;/span&gt;&lt;span style=&quot;color: #001080;&quot;&gt;:&lt;/span&gt; &lt;span style=&quot;color: #795e26;&quot;&gt;ProfolioApp&lt;/span&gt;,&lt;/div&gt;&lt;div&gt;    },&lt;/div&gt;&lt;div&gt;    ...&lt;span style=&quot;color: #0070c1;&quot;&gt;wealthScreenConfig&lt;/span&gt;,&lt;/div&gt;&lt;div&gt;    &lt;span style=&quot;color: #008000;&quot;&gt;// [AppRoutes.WealthWebView]: {&lt;/span&gt;&lt;/div&gt;&lt;div&gt;    &lt;span style=&quot;color: #008000;&quot;&gt;//   screen: WebviewScreen,&lt;/span&gt;&lt;/div&gt;&lt;div&gt;    &lt;span style=&quot;color: #008000;&quot;&gt;// },&lt;/span&gt;&lt;/div&gt;&lt;div&gt;    &lt;span style=&quot;color: #008000;&quot;&gt;// [AppRoutes.WealthLanding]: {&lt;/span&gt;&lt;/div&gt;&lt;div&gt;    &lt;span style=&quot;color: #008000;&quot;&gt;//   screen: LandingScreen,&lt;/span&gt;&lt;/div&gt;&lt;div&gt;    &lt;span style=&quot;color: #008000;&quot;&gt;// },&lt;/span&gt;&lt;/div&gt;&lt;div&gt;    &lt;span style=&quot;color: #008000;&quot;&gt;// [AppRoutes.WealthBOCIMPF]: {&lt;/span&gt;&lt;/div&gt;&lt;div&gt;    &lt;span style=&quot;color: #008000;&quot;&gt;//   screen: BOCIMPFScreen,&lt;/span&gt;&lt;/div&gt;&lt;div&gt;    &lt;span style=&quot;color: #008000;&quot;&gt;// },&lt;/span&gt;&lt;/div&gt;&lt;div&gt;    &lt;span style=&quot;color: #008000;&quot;&gt;// [AppRoutes.WealthHyperView]: {&lt;/span&gt;&lt;/div&gt;&lt;div&gt;    &lt;span style=&quot;color: #008000;&quot;&gt;//   screen: HyperviewScreen,&lt;/span&gt;&lt;/div&gt;&lt;div&gt;    &lt;span style=&quot;color: #008000;&quot;&gt;// },&lt;/span&gt;&lt;/div&gt;&lt;div&gt;  },&lt;/div&gt;&lt;div&gt;  {&lt;/div&gt;&lt;div&gt;    &lt;span style=&quot;color: #001080;&quot;&gt;initialRouteName&lt;/span&gt;&lt;span style=&quot;color: #001080;&quot;&gt;:&lt;/span&gt; &lt;span style=&quot;color: #a31515;&quot;&gt;&#39;Login&#39;&lt;/span&gt;,&lt;/div&gt;&lt;div&gt;    &lt;span style=&quot;color: #001080;&quot;&gt;headerMode&lt;/span&gt;&lt;span style=&quot;color: #001080;&quot;&gt;:&lt;/span&gt; &lt;span style=&quot;color: #a31515;&quot;&gt;&#39;none&#39;&lt;/span&gt;,&lt;/div&gt;&lt;div&gt;    &lt;span style=&quot;color: #001080;&quot;&gt;defaultNavigationOptions&lt;/span&gt;&lt;span style=&quot;color: #001080;&quot;&gt;:&lt;/span&gt; {&lt;/div&gt;&lt;div&gt;      &lt;span style=&quot;color: #001080;&quot;&gt;gesturesEnabled&lt;/span&gt;&lt;span style=&quot;color: #001080;&quot;&gt;:&lt;/span&gt; &lt;span style=&quot;color: #0000ff;&quot;&gt;false&lt;/span&gt;,&lt;/div&gt;&lt;div&gt;    },&lt;/div&gt;&lt;div&gt;  },&lt;/div&gt;&lt;div&gt;);&lt;/div&gt;&lt;/div&gt;" style="shape=document;whiteSpace=wrap;html=1;boundedLbl=1;rounded=1;glass=0;strokeWidth=1;shadow=0;align=left;" vertex="1" parent="B4zs4j52J3PY8R9Cxe29-14">
          <mxGeometry x="442.5" y="178" width="455" height="80" as="geometry" />
        </mxCell>
        <mxCell id="B4zs4j52J3PY8R9Cxe29-5" value="" style="edgeStyle=orthogonalEdgeStyle;rounded=0;orthogonalLoop=1;jettySize=auto;html=1;" edge="1" parent="B4zs4j52J3PY8R9Cxe29-14" source="B4zs4j52J3PY8R9Cxe29-2" target="B4zs4j52J3PY8R9Cxe29-4">
          <mxGeometry relative="1" as="geometry" />
        </mxCell>
        <mxCell id="B4zs4j52J3PY8R9Cxe29-11" value="" style="edgeStyle=orthogonalEdgeStyle;rounded=0;orthogonalLoop=1;jettySize=auto;html=1;fontColor=#FF0000;" edge="1" parent="B4zs4j52J3PY8R9Cxe29-14" source="B4zs4j52J3PY8R9Cxe29-2" target="B4zs4j52J3PY8R9Cxe29-4">
          <mxGeometry relative="1" as="geometry" />
        </mxCell>
        <mxCell id="B4zs4j52J3PY8R9Cxe29-9" value="&lt;div style=&quot;background-color: rgb(255, 255, 255); font-family: Menlo, Monaco, &amp;quot;Courier New&amp;quot;, monospace; line-height: 18px;&quot;&gt;      &lt;span style=&quot;color: #001080;&quot;&gt;props&lt;/span&gt;.&lt;span style=&quot;color: #001080;&quot;&gt;navigation&lt;/span&gt;.&lt;span style=&quot;color: #795e26;&quot;&gt;navigate&lt;/span&gt;(&lt;span style=&quot;color: #a31515;&quot;&gt;&#39;WealthSDKLandingScreen&#39;&lt;/span&gt;, &lt;span style=&quot;color: #001080;&quot;&gt;loginData&lt;/span&gt;);&lt;/div&gt;" style="whiteSpace=wrap;html=1;align=center;rounded=1;glass=0;strokeWidth=1;shadow=0;" vertex="1" parent="B4zs4j52J3PY8R9Cxe29-14">
          <mxGeometry x="187.5" y="555" width="240" height="60" as="geometry" />
        </mxCell>
        <mxCell id="B4zs4j52J3PY8R9Cxe29-10" value="" style="edgeStyle=orthogonalEdgeStyle;rounded=0;orthogonalLoop=1;jettySize=auto;html=1;fontColor=#FF0000;" edge="1" parent="B4zs4j52J3PY8R9Cxe29-14" source="B4zs4j52J3PY8R9Cxe29-4" target="B4zs4j52J3PY8R9Cxe29-9">
          <mxGeometry relative="1" as="geometry">
            <Array as="points">
              <mxPoint x="670.5" y="585" />
            </Array>
          </mxGeometry>
        </mxCell>
        <mxCell id="B4zs4j52J3PY8R9Cxe29-12" value="&lt;div style=&quot;background-color: rgb(255, 255, 255); font-family: Menlo, Monaco, &amp;quot;Courier New&amp;quot;, monospace; line-height: 18px;&quot;&gt;&lt;div&gt;&lt;span style=&quot;color: #af00db;&quot;&gt;export&lt;/span&gt; &lt;span style=&quot;color: #af00db;&quot;&gt;default&lt;/span&gt; &lt;span style=&quot;color: #0000ff;&quot;&gt;function&lt;/span&gt; &lt;span style=&quot;color: #795e26;&quot;&gt;HomeScreen&lt;/span&gt;(&lt;span style=&quot;color: #001080;&quot;&gt;props&lt;/span&gt;) {&lt;/div&gt;&lt;div&gt;  &lt;span style=&quot;color: #0000ff;&quot;&gt;const&lt;/span&gt; &lt;span style=&quot;color: #0070c1;&quot;&gt;loginData&lt;/span&gt; = &lt;span style=&quot;color: #001080;&quot;&gt;props&lt;/span&gt;?.&lt;span style=&quot;color: #001080;&quot;&gt;navigation&lt;/span&gt;?.&lt;span style=&quot;color: #001080;&quot;&gt;state&lt;/span&gt;?.&lt;span style=&quot;color: #001080;&quot;&gt;params&lt;/span&gt;;&lt;/div&gt;&lt;div&gt;  &lt;span style=&quot;color: #af00db;&quot;&gt;return&lt;/span&gt; &lt;span style=&quot;color: #800000;&quot;&gt;&amp;lt;&lt;/span&gt;&lt;span style=&quot;color: #267f99;&quot;&gt;WealthSDKLandingScreen&lt;/span&gt; &lt;span style=&quot;color: #0000ff;&quot;&gt;{&lt;/span&gt;...&lt;span style=&quot;color: #001080;&quot;&gt;props&lt;/span&gt;&lt;span style=&quot;color: #0000ff;&quot;&gt;}&lt;/span&gt; &lt;span style=&quot;color: #0000ff;&quot;&gt;{&lt;/span&gt;...&lt;span style=&quot;color: #001080;&quot;&gt;loginData&lt;/span&gt;&lt;span style=&quot;color: #0000ff;&quot;&gt;}&lt;/span&gt; &lt;span style=&quot;color: #800000;&quot;&gt;/&amp;gt;&lt;/span&gt;;&lt;/div&gt;&lt;div&gt;&lt;/div&gt;&lt;/div&gt;" style="whiteSpace=wrap;html=1;rounded=1;glass=0;strokeWidth=1;shadow=0;" vertex="1" parent="B4zs4j52J3PY8R9Cxe29-14">
          <mxGeometry y="675" width="615" height="60" as="geometry" />
        </mxCell>
        <mxCell id="B4zs4j52J3PY8R9Cxe29-13" value="" style="edgeStyle=orthogonalEdgeStyle;rounded=0;orthogonalLoop=1;jettySize=auto;html=1;fontColor=#FF0000;" edge="1" parent="B4zs4j52J3PY8R9Cxe29-14" source="B4zs4j52J3PY8R9Cxe29-9" target="B4zs4j52J3PY8R9Cxe29-12">
          <mxGeometry relative="1" as="geometry" />
        </mxCell>
        <mxCell id="B4zs4j52J3PY8R9Cxe29-15" value="wealth-sdk" style="rounded=1;whiteSpace=wrap;html=1;" vertex="1" parent="WIyWlLk6GJQsqaUBKTNV-1">
          <mxGeometry x="12.5" y="1000" width="120" height="60" as="geometry" />
        </mxCell>
        <mxCell id="B4zs4j52J3PY8R9Cxe29-16" value="&lt;div style=&quot;color: rgb(0, 0, 0); background-color: rgb(255, 255, 255); font-family: Menlo, Monaco, &amp;quot;Courier New&amp;quot;, monospace; line-height: 18px;&quot;&gt;&lt;div&gt;&lt;span style=&quot;color: #af00db;&quot;&gt;index.js:&amp;nbsp;&lt;/span&gt;&lt;/div&gt;&lt;div&gt;&lt;span style=&quot;color: #af00db;&quot;&gt;export&lt;/span&gt; { &lt;span style=&quot;color: #0070c1;&quot;&gt;WebviewScreen&lt;/span&gt;, &lt;span style=&quot;color: #795e26;&quot;&gt;Screen&lt;/span&gt;, &lt;span style=&quot;color: #0070c1;&quot;&gt;LandingScreen&lt;/span&gt;, &lt;span style=&quot;color: #0070c1;&quot;&gt;BOCIMPFScreen&lt;/span&gt;, &lt;span style=&quot;color: #0070c1;&quot;&gt;RicherKidsScreen&lt;/span&gt;, &lt;span style=&quot;color: #0070c1;&quot;&gt;HyperviewScreen&lt;/span&gt;, &lt;span style=&quot;color: #795e26;&quot;&gt;App&lt;/span&gt; &lt;span style=&quot;color: #af00db;&quot;&gt;as&lt;/span&gt; &lt;span style=&quot;color: #795e26;&quot;&gt;ProfolioApp&lt;/span&gt; };&lt;/div&gt;&lt;div&gt;&lt;span style=&quot;color: #0000ff;&quot;&gt;const&lt;/span&gt; &lt;span style=&quot;color: #0070c1;&quot;&gt;WealthSdkNavConfig&lt;/span&gt; = {&lt;/div&gt;&lt;div&gt;  &lt;span style=&quot;color: #001080;&quot;&gt;[&lt;/span&gt;&lt;span style=&quot;color: #0070c1;&quot;&gt;AppRoutes&lt;/span&gt;&lt;span style=&quot;color: #001080;&quot;&gt;.&lt;/span&gt;&lt;span style=&quot;color: #001080;&quot;&gt;WealthWebView&lt;/span&gt;&lt;span style=&quot;color: #001080;&quot;&gt;]:&lt;/span&gt; &lt;span style=&quot;color: #0070c1;&quot;&gt;WebviewScreen&lt;/span&gt;,&lt;/div&gt;&lt;div&gt;  &lt;span style=&quot;color: #001080;&quot;&gt;[&lt;/span&gt;&lt;span style=&quot;color: #0070c1;&quot;&gt;AppRoutes&lt;/span&gt;&lt;span style=&quot;color: #001080;&quot;&gt;.&lt;/span&gt;&lt;span style=&quot;color: #001080;&quot;&gt;WealthLanding&lt;/span&gt;&lt;span style=&quot;color: #001080;&quot;&gt;]:&lt;/span&gt; &lt;span style=&quot;color: #0070c1;&quot;&gt;LandingScreen&lt;/span&gt;,&lt;/div&gt;&lt;div&gt;  &lt;span style=&quot;color: #001080;&quot;&gt;[&lt;/span&gt;&lt;span style=&quot;color: #0070c1;&quot;&gt;AppRoutes&lt;/span&gt;&lt;span style=&quot;color: #001080;&quot;&gt;.&lt;/span&gt;&lt;span style=&quot;color: #001080;&quot;&gt;WealthBOCIMPF&lt;/span&gt;&lt;span style=&quot;color: #001080;&quot;&gt;]:&lt;/span&gt; &lt;span style=&quot;color: #0070c1;&quot;&gt;BOCIMPFScreen&lt;/span&gt;,&lt;/div&gt;&lt;div&gt;  &lt;span style=&quot;color: #001080;&quot;&gt;[&lt;/span&gt;&lt;span style=&quot;color: #0070c1;&quot;&gt;AppRoutes&lt;/span&gt;&lt;span style=&quot;color: #001080;&quot;&gt;.&lt;/span&gt;&lt;span style=&quot;color: #001080;&quot;&gt;WealthRicherKids&lt;/span&gt;&lt;span style=&quot;color: #001080;&quot;&gt;]:&lt;/span&gt; &lt;span style=&quot;color: #0070c1;&quot;&gt;RicherKidsScreen&lt;/span&gt;,&lt;/div&gt;&lt;div&gt;  &lt;span style=&quot;color: #001080;&quot;&gt;[&lt;/span&gt;&lt;span style=&quot;color: #0070c1;&quot;&gt;AppRoutes&lt;/span&gt;&lt;span style=&quot;color: #001080;&quot;&gt;.&lt;/span&gt;&lt;span style=&quot;color: #001080;&quot;&gt;WealthHyperView&lt;/span&gt;&lt;span style=&quot;color: #001080;&quot;&gt;]:&lt;/span&gt; &lt;span style=&quot;color: #0070c1;&quot;&gt;HyperviewScreen&lt;/span&gt;&lt;/div&gt;&lt;div&gt;};&lt;/div&gt;&lt;/div&gt;" style="rounded=1;whiteSpace=wrap;html=1;fontColor=#FF0000;align=left;" vertex="1" parent="WIyWlLk6GJQsqaUBKTNV-1">
          <mxGeometry x="140" y="1120" width="910" height="60" as="geometry" />
        </mxCell>
        <mxCell id="B4zs4j52J3PY8R9Cxe29-19" value="" style="edgeStyle=orthogonalEdgeStyle;rounded=0;orthogonalLoop=1;jettySize=auto;html=1;fontColor=#FF0000;" edge="1" parent="WIyWlLk6GJQsqaUBKTNV-1" source="B4zs4j52J3PY8R9Cxe29-17" target="B4zs4j52J3PY8R9Cxe29-18">
          <mxGeometry relative="1" as="geometry" />
        </mxCell>
        <mxCell id="B4zs4j52J3PY8R9Cxe29-17" value="&lt;div style=&quot;background-color: rgb(255, 255, 255); line-height: 18px;&quot;&gt;&lt;div style=&quot;&quot;&gt;&lt;font face=&quot;Menlo, Monaco, Courier New, monospace&quot; color=&quot;#af00db&quot;&gt;app/screens/Landing/LandingScreen.tsx:&amp;nbsp;&lt;/font&gt;&lt;br&gt;&lt;/div&gt;&lt;div style=&quot;color: rgb(0, 0, 0); font-family: Menlo, Monaco, &amp;quot;Courier New&amp;quot;, monospace;&quot;&gt;&lt;div style=&quot;line-height: 18px;&quot;&gt;&lt;div&gt;&lt;span style=&quot;color: #0000ff;&quot;&gt;const&lt;/span&gt; &lt;span style=&quot;color: #0070c1;&quot;&gt;LandingScreen&lt;/span&gt;: &lt;span style=&quot;color: #267f99;&quot;&gt;React&lt;/span&gt;.&lt;span style=&quot;color: #267f99;&quot;&gt;FC&lt;/span&gt;&amp;lt;&lt;span style=&quot;color: #267f99;&quot;&gt;Props&lt;/span&gt; &amp;amp; &lt;span style=&quot;color: #267f99;&quot;&gt;any&lt;/span&gt;&amp;gt; = (&lt;span style=&quot;color: #001080;&quot;&gt;props&lt;/span&gt;: &lt;span style=&quot;color: #267f99;&quot;&gt;any&lt;/span&gt;) &lt;span style=&quot;color: #0000ff;&quot;&gt;=&amp;gt;&lt;/span&gt; {&lt;/div&gt;&lt;div&gt;  &lt;span style=&quot;color: #795e26;&quot;&gt;useEffect&lt;/span&gt;(() &lt;span style=&quot;color: #0000ff;&quot;&gt;=&amp;gt;&lt;/span&gt; {&lt;/div&gt;&lt;div&gt;    &lt;span style=&quot;color: #0070c1;&quot;&gt;ConfigUtilInstance&lt;/span&gt;.&lt;span style=&quot;color: #795e26;&quot;&gt;setEnv&lt;/span&gt;(&lt;span style=&quot;color: #001080;&quot;&gt;props&lt;/span&gt;.&lt;span style=&quot;color: #001080;&quot;&gt;env&lt;/span&gt;);&lt;/div&gt;&lt;div&gt;    &lt;span style=&quot;color: #008000;&quot;&gt;// ConfigUtilInstance.setEnv(&#39;prod&#39;);&lt;/span&gt;&lt;/div&gt;&lt;div&gt;    &lt;span style=&quot;color: #795e26;&quot;&gt;setHkGlobalData&lt;/span&gt;();&lt;/div&gt;&lt;div&gt;    &lt;span style=&quot;color: #008000;&quot;&gt;// eslint-disable-next-line&lt;/span&gt;&lt;/div&gt;&lt;div&gt;  }, []);&lt;/div&gt;&lt;div&gt;&lt;div style=&quot;line-height: 18px;&quot;&gt;&lt;br&gt;&lt;div&gt;  &lt;span style=&quot;color: #795e26;&quot;&gt;changeLanguage&lt;/span&gt;(&lt;span style=&quot;color: #001080;&quot;&gt;props&lt;/span&gt;.&lt;span style=&quot;color: #001080;&quot;&gt;language&lt;/span&gt;);&lt;/div&gt;&lt;div&gt;  &lt;span style=&quot;color: #008000;&quot;&gt;// return &amp;lt;Navigation /&amp;gt;;&lt;/span&gt;&lt;/div&gt;&lt;br&gt;&lt;div&gt;  &lt;span style=&quot;color: #af00db;&quot;&gt;if&lt;/span&gt; (&lt;span style=&quot;color: #795e26;&quot;&gt;isRolloutWealth&lt;/span&gt;(&lt;span style=&quot;color: #001080;&quot;&gt;props&lt;/span&gt;?.&lt;span style=&quot;color: #001080;&quot;&gt;userProfile&lt;/span&gt;?.&lt;span style=&quot;color: #001080;&quot;&gt;countryCode&lt;/span&gt;)) {&lt;/div&gt;&lt;div&gt;    &lt;span style=&quot;color: #af00db;&quot;&gt;return&lt;/span&gt; &lt;span style=&quot;color: #800000;&quot;&gt;&amp;lt;&lt;/span&gt;&lt;span style=&quot;color: #267f99;&quot;&gt;WealthLoginScreen&lt;/span&gt; &lt;span style=&quot;color: #0000ff;&quot;&gt;{&lt;/span&gt;...&lt;span style=&quot;color: #001080;&quot;&gt;props&lt;/span&gt;&lt;span style=&quot;color: #0000ff;&quot;&gt;}&lt;/span&gt; &lt;span style=&quot;color: #800000;&quot;&gt;/&amp;gt;&lt;/span&gt;;&lt;/div&gt;&lt;div&gt;  }&lt;/div&gt;&lt;/div&gt;&lt;/div&gt;&lt;/div&gt;&lt;/div&gt;&lt;/div&gt;" style="rounded=1;whiteSpace=wrap;html=1;fontColor=#FF0000;align=left;" vertex="1" parent="WIyWlLk6GJQsqaUBKTNV-1">
          <mxGeometry x="140" y="1370" width="470" height="60" as="geometry" />
        </mxCell>
        <mxCell id="B4zs4j52J3PY8R9Cxe29-18" value="&lt;div style=&quot;color: rgb(0, 0, 0); background-color: rgb(255, 255, 255); font-family: Menlo, Monaco, &amp;quot;Courier New&amp;quot;, monospace; line-height: 18px;&quot;&gt;&lt;div&gt;  &lt;span style=&quot;color: #0000ff;&quot;&gt;const&lt;/span&gt; &lt;span style=&quot;color: #795e26;&quot;&gt;setHkGlobalData&lt;/span&gt; = () &lt;span style=&quot;color: #0000ff;&quot;&gt;=&amp;gt;&lt;/span&gt; {&lt;/div&gt;&lt;div&gt;    &lt;span style=&quot;color: #af00db;&quot;&gt;if&lt;/span&gt; (&lt;span style=&quot;color: #001080;&quot;&gt;props&lt;/span&gt;?.&lt;span style=&quot;color: #001080;&quot;&gt;userProfile&lt;/span&gt;?.&lt;span style=&quot;color: #001080;&quot;&gt;countryCode&lt;/span&gt; !== &lt;span style=&quot;color: #a31515;&quot;&gt;&#39;HK&#39;&lt;/span&gt;) {&lt;/div&gt;&lt;div&gt;      &lt;span style=&quot;color: #af00db;&quot;&gt;return&lt;/span&gt;;&lt;/div&gt;&lt;div&gt;    }&lt;/div&gt;&lt;div&gt;    &lt;span style=&quot;color: #001080;&quot;&gt;GlobalHelpers&lt;/span&gt;.&lt;span style=&quot;color: #795e26;&quot;&gt;setEnv&lt;/span&gt;({&lt;/div&gt;&lt;div&gt;      &lt;span style=&quot;color: #001080;&quot;&gt;customerId&lt;/span&gt;&lt;span style=&quot;color: #001080;&quot;&gt;:&lt;/span&gt; &lt;span style=&quot;color: #001080;&quot;&gt;props&lt;/span&gt;.&lt;span style=&quot;color: #001080;&quot;&gt;userProfile&lt;/span&gt;?.&lt;span style=&quot;color: #001080;&quot;&gt;id&lt;/span&gt;,&lt;/div&gt;&lt;div&gt;      &lt;span style=&quot;color: #008000;&quot;&gt;// userId: &#39;100&#39;,&lt;/span&gt;&lt;/div&gt;&lt;div&gt;      &lt;span style=&quot;color: #001080;&quot;&gt;userId&lt;/span&gt;&lt;span style=&quot;color: #001080;&quot;&gt;:&lt;/span&gt; &lt;span style=&quot;color: #001080;&quot;&gt;props&lt;/span&gt;.&lt;span style=&quot;color: #001080;&quot;&gt;userProfile&lt;/span&gt;?.&lt;span style=&quot;color: #001080;&quot;&gt;id&lt;/span&gt;,&lt;/div&gt;&lt;div&gt;      &lt;span style=&quot;color: #001080;&quot;&gt;lang&lt;/span&gt;&lt;span style=&quot;color: #001080;&quot;&gt;:&lt;/span&gt; &lt;span style=&quot;color: #001080;&quot;&gt;props&lt;/span&gt;.&lt;span style=&quot;color: #001080;&quot;&gt;language&lt;/span&gt; != &lt;span style=&quot;color: #0000ff;&quot;&gt;undefined&lt;/span&gt; ? (&lt;span style=&quot;color: #001080;&quot;&gt;props&lt;/span&gt;.&lt;span style=&quot;color: #001080;&quot;&gt;language&lt;/span&gt; === &lt;span style=&quot;color: #a31515;&quot;&gt;&#39;ZH&#39;&lt;/span&gt; ? &lt;span style=&quot;color: #a31515;&quot;&gt;&#39;C&#39;&lt;/span&gt; : &lt;span style=&quot;color: #a31515;&quot;&gt;&#39;E&#39;&lt;/span&gt;) : &lt;span style=&quot;color: #a31515;&quot;&gt;&#39;E&#39;&lt;/span&gt;,&lt;/div&gt;&lt;div&gt;      &lt;span style=&quot;color: #008000;&quot;&gt;// lang: &#39;E&#39;,&lt;/span&gt;&lt;/div&gt;&lt;div&gt;      &lt;span style=&quot;color: #001080;&quot;&gt;phone&lt;/span&gt;&lt;span style=&quot;color: #001080;&quot;&gt;:&lt;/span&gt; &lt;span style=&quot;color: #001080;&quot;&gt;props&lt;/span&gt;.&lt;span style=&quot;color: #001080;&quot;&gt;userProfile&lt;/span&gt;?.&lt;span style=&quot;color: #001080;&quot;&gt;phone&lt;/span&gt;,&lt;/div&gt;&lt;div&gt;      &lt;span style=&quot;color: #001080;&quot;&gt;email&lt;/span&gt;&lt;span style=&quot;color: #001080;&quot;&gt;:&lt;/span&gt; &lt;span style=&quot;color: #001080;&quot;&gt;props&lt;/span&gt;.&lt;span style=&quot;color: #001080;&quot;&gt;userProfile&lt;/span&gt;?.&lt;span style=&quot;color: #001080;&quot;&gt;email&lt;/span&gt;,&lt;/div&gt;&lt;div&gt;      &lt;span style=&quot;color: #795e26;&quot;&gt;goBack&lt;/span&gt;&lt;span style=&quot;color: #001080;&quot;&gt;:&lt;/span&gt; () &lt;span style=&quot;color: #0000ff;&quot;&gt;=&amp;gt;&lt;/span&gt; &lt;span style=&quot;color: #001080;&quot;&gt;props&lt;/span&gt;.&lt;span style=&quot;color: #001080;&quot;&gt;navigation&lt;/span&gt;.&lt;span style=&quot;color: #795e26;&quot;&gt;navigate&lt;/span&gt;(&lt;span style=&quot;color: #0070c1;&quot;&gt;AppRoutes&lt;/span&gt;.&lt;span style=&quot;color: #001080;&quot;&gt;WealthLanding&lt;/span&gt;)&lt;/div&gt;&lt;div&gt;    });&lt;/div&gt;&lt;div&gt;    &lt;span style=&quot;color: #001080;&quot;&gt;GlobalHelpers&lt;/span&gt;.&lt;span style=&quot;color: #795e26;&quot;&gt;setTab&lt;/span&gt;({&lt;/div&gt;&lt;div&gt;      &lt;span style=&quot;color: #001080;&quot;&gt;fundBalance&lt;/span&gt;&lt;span style=&quot;color: #001080;&quot;&gt;:&lt;/span&gt; &lt;span style=&quot;color: #0000ff;&quot;&gt;false&lt;/span&gt;,&lt;/div&gt;&lt;div&gt;      &lt;span style=&quot;color: #001080;&quot;&gt;contributionHistory&lt;/span&gt;&lt;span style=&quot;color: #001080;&quot;&gt;:&lt;/span&gt; &lt;span style=&quot;color: #0000ff;&quot;&gt;false&lt;/span&gt;,&lt;/div&gt;&lt;div&gt;      &lt;span style=&quot;color: #001080;&quot;&gt;transactionHistory&lt;/span&gt;&lt;span style=&quot;color: #001080;&quot;&gt;:&lt;/span&gt; &lt;span style=&quot;color: #0000ff;&quot;&gt;false&lt;/span&gt;,&lt;/div&gt;&lt;div&gt;      &lt;span style=&quot;color: #001080;&quot;&gt;unitFundPrice&lt;/span&gt;&lt;span style=&quot;color: #001080;&quot;&gt;:&lt;/span&gt; &lt;span style=&quot;color: #0000ff;&quot;&gt;false&lt;/span&gt;&lt;/div&gt;&lt;div&gt;    });&lt;/div&gt;&lt;div&gt;  };&lt;/div&gt;&lt;/div&gt;" style="whiteSpace=wrap;html=1;align=left;fontColor=#FF0000;rounded=1;" vertex="1" parent="WIyWlLk6GJQsqaUBKTNV-1">
          <mxGeometry x="865" y="1370" width="715" height="60" as="geometry" />
        </mxCell>
      </root>
    </mxGraphModel>
  </diagram>
</mxfile>
